<?xml version="1.0" encoding="UTF-8"?>
<svg version="1.1" xmlns="http://www.w3.org/2000/svg" width="616" height="462">
<path d="M0 0 C1.75 0.0625 1.75 0.0625 4 1 C7.34395086 5.80692936 9.14679103 10.90893242 10.97265625 16.44921875 C12.01472117 19.03655104 13.32275224 20.79332921 15 23 C15.84375 25.11328125 15.84375 25.11328125 16.5 27.3125 C17.39056491 30.17070047 18.33550531 32.7515319 19.5625 35.5 C20.93670415 38.84588837 21.68805208 41.88833022 22.3984375 45.41015625 C23.1212951 48.52219905 24.08503578 51.52110954 25.0625 54.5625 C26.20216691 58.16585861 27.20676175 61.54760354 27.5625 65.3125 C27.84797095 69.06513016 27.84797095 69.06513016 29.42578125 72.59765625 C31.26143552 77.35941454 31.98191765 82.08056773 32.625 87.125 C32.81763428 88.54558716 32.81763428 88.54558716 33.01416016 89.99487305 C34.0082201 97.8164874 34.40800237 105.61792628 34.35791016 113.50244141 C34.46362193 120.23105958 36.49842872 124.35268706 40 130 C40.7532756 131.73113026 41.47369623 133.47798434 42.125 135.25 C43.08604735 137.8524822 44.05921989 140.0977745 45.5 142.4765625 C46.99885699 144.99807712 47.93934357 147.3511513 48.875 150.125 C50.52996966 154.80993292 52.42568708 159.28959313 54.51953125 163.79296875 C56.7283353 168.57773953 58.84850445 173.4014354 60.97192383 178.22460938 C62.53212542 181.7547924 64.10932938 185.26666435 65.8125 188.73046875 C68.86902069 194.99780565 70.76270865 199.99990521 71 207 C69.02 207.33 67.04 207.66 65 208 C67.57658168 225.6913082 67.57658168 225.6913082 78 239 C78 239.66 78 240.32 78 241 C78.61875 241.226875 79.2375 241.45375 79.875 241.6875 C82.6292098 243.38862958 82.82150461 245.05376154 84 248 C85.88316159 249.10836423 85.88316159 249.10836423 88 250 C90.80190319 252.21624787 91.88729102 253.38685021 92.5415802 256.94625854 C92.5598436 258.09176178 92.57810699 259.23726501 92.59692383 260.41748047 C92.62567093 261.71918182 92.65441803 263.02088318 92.68403625 264.36203003 C92.69347079 265.78040519 92.70109124 267.1987934 92.70703125 268.6171875 C92.72243218 270.07683783 92.73828262 271.53648348 92.75456238 272.99612427 C92.78300516 276.05432608 92.79443135 279.11208302 92.79614258 282.17041016 C92.80132369 286.08123172 92.86629094 289.98855987 92.94643116 293.89846611 C92.99853362 296.91327984 93.00970392 299.92725564 93.00964928 302.94247818 C93.0161971 304.383446 93.03741188 305.82442741 93.07383156 307.2649498 C93.33435416 318.53374492 93.33435416 318.53374492 90.01766968 322.17828369 C87.73549259 323.70437582 85.49239674 324.86200727 83 326 C82.154375 326.70125 81.30875 327.4025 80.4375 328.125 C77.82408143 330.13532197 75.22610884 331.43994817 72.26171875 332.8515625 C68.74897672 334.63523462 65.43997737 336.74032375 62.1015625 338.828125 C60 340 60 340 58 340 C58 340.66 58 341.32 58 342 C55.796875 343.48046875 55.796875 343.48046875 52.75 345.1875 C51.10644531 346.12142578 51.10644531 346.12142578 49.4296875 347.07421875 C48.29789063 347.70972656 47.16609375 348.34523438 46 349 C40.15295258 352.31918857 34.4009983 355.63534087 28.9375 359.5625 C24.62704847 362.65825102 20.14928564 365.18058559 15.46484375 367.6640625 C12.50950542 369.26584651 9.76717775 371.093722 7 373 C2.69911175 375.75746227 -1.66608323 378.3981752 -6.0625 381 C-9.63229944 383.12877948 -13.01068027 385.39480982 -16.359375 387.8515625 C-18.54707579 389.38295305 -20.85765044 390.67843532 -23.19140625 391.97265625 C-25.12557842 393.07133288 -26.99779854 394.24426897 -28.875 395.4375 C-32.43936385 397.69377692 -36.09501461 399.72113203 -39.82421875 401.69140625 C-42.10319653 402.99250253 -42.10319653 402.99250253 -44.34375 404.90625 C-47.33198589 407.261683 -50.49364913 409.10329165 -53.8125 410.9375 C-60.32011946 414.59798305 -66.69942311 418.30560853 -72.75 422.6875 C-78.81081081 427 -78.81081081 427 -83 427 C-83 427.66 -83 428.32 -83 429 C-84.32 429 -85.64 429 -87 429 C-88.63716313 426.87885799 -89.93601608 424.93177178 -91.25 422.625 C-91.61351562 422.02171875 -91.97703125 421.4184375 -92.3515625 420.796875 C-95 416.31643562 -95 416.31643562 -95 414 C-95.60360352 413.74798828 -96.20720703 413.49597656 -96.82910156 413.23632812 C-99.30803942 411.82457134 -100.21775753 410.61221511 -101.734375 408.21875 C-102.46599854 407.08651001 -102.46599854 407.08651001 -103.21240234 405.93139648 C-103.71980957 405.12903564 -104.2272168 404.3266748 -104.75 403.5 C-108.65539568 397.47071106 -112.64761322 391.71719684 -117.24609375 386.1875 C-119.66915421 383.16542014 -121.7730015 379.96774427 -123.87109375 376.71484375 C-124.88764625 375.0450855 -124.88764625 375.0450855 -126 374 C-126.1216945 371.42584642 -126.17860911 368.87804213 -126.19287109 366.30249023 C-126.20513733 365.09259682 -126.20513733 365.09259682 -126.21765137 363.85826111 C-126.24256548 361.17504629 -126.25904163 358.4918848 -126.2734375 355.80859375 C-126.27876118 354.89276079 -126.28408485 353.97692783 -126.28956985 353.03334236 C-126.31633469 348.18068401 -126.33569399 343.32805161 -126.35009766 338.4753418 C-126.36670292 333.4705761 -126.41143622 328.4664744 -126.4624691 323.46195889 C-126.49620085 319.60908795 -126.50768192 315.75637291 -126.51332474 311.903368 C-126.52002689 310.0594383 -126.53522195 308.21551848 -126.55921555 306.37173271 C-126.59098147 303.78170521 -126.59088653 301.19344418 -126.58349609 298.60327148 C-126.59990143 297.8481427 -126.61630676 297.09301392 -126.63320923 296.31500244 C-126.56385586 290.34267845 -124.39159828 286.79454454 -121 282 C-118.87055028 277.80938841 -118.69786545 274.19403819 -118.5859375 269.51171875 C-118.56657135 268.80852005 -118.5472052 268.10532135 -118.5272522 267.3808136 C-118.46779817 265.14982981 -118.42120951 262.91879346 -118.375 260.6875 C-118.33678863 259.16859814 -118.29773508 257.64971722 -118.2578125 256.13085938 C-118.16212584 252.42076533 -118.07796928 248.71051349 -118 245 C-119.22348145 245.02356567 -119.22348145 245.02356567 -120.47167969 245.04760742 C-123.55808062 245.09936775 -126.64425715 245.13665214 -129.73095703 245.16479492 C-131.69969568 245.1869343 -133.66823362 245.22509352 -135.63671875 245.26367188 C-146.14629353 245.34369402 -155.8991857 244.2684087 -165.1875 239 C-166.53908203 238.2575 -166.53908203 238.2575 -167.91796875 237.5 C-170 236 -170 236 -171 233 C-171.76183594 232.74605469 -172.52367187 232.49210938 -173.30859375 232.23046875 C-177.02857295 230.52975257 -178.25340723 227.7965444 -180.0625 224.3125 C-180.38798828 223.71244141 -180.71347656 223.11238281 -181.04882812 222.49414062 C-181.70964375 221.27588449 -182.36634915 220.05539038 -183.01904297 218.83276367 C-186.24488587 212.80578441 -189.75298886 207.36278529 -193.99609375 201.98242188 C-197.32680491 197.44004004 -197.40003451 194.40634876 -197 189 C-193.50001799 188.97065289 -190.00006821 188.95308555 -186.5 188.9375 C-185.51773438 188.92912109 -184.53546875 188.92074219 -183.5234375 188.91210938 C-177.9324181 188.89347264 -172.49506756 188.90350716 -167 190 C-165.1193713 192.76217341 -164 194.62963578 -164 198 C-161.69 197.01 -159.38 196.02 -157 195 C-157.45375 193.948125 -157.9075 192.89625 -158.375 191.8125 C-159.63385532 188.89424448 -160.82259918 185.95200313 -162 183 C-163.11242065 182.96241577 -163.11242065 182.96241577 -164.24731445 182.92407227 C-167.60255328 182.80813868 -170.95750944 182.68540015 -174.3125 182.5625 C-175.47974609 182.52318359 -176.64699219 182.48386719 -177.84960938 182.44335938 C-178.96787109 182.40146484 -180.08613281 182.35957031 -181.23828125 182.31640625 C-182.26993408 182.27974854 -183.30158691 182.24309082 -184.36450195 182.20532227 C-187 182 -187 182 -190 181 C-188.79212497 177.24216657 -186.55033794 175.76152416 -183.140625 173.94921875 C-178.3422848 171.8214876 -173.27450439 170 -168 170 C-168 169.34 -168 168.68 -168 168 C-167.26136719 167.75765625 -166.52273437 167.5153125 -165.76171875 167.265625 C-160.54143916 165.54100912 -155.34485858 163.78035748 -150.1875 161.875 C-146.16215821 160.39560088 -142.13046407 159.15942851 -138 158 C-135.99754158 157.34075443 -133.99776085 156.6733469 -132 156 C-127.69118484 154.54929339 -123.38575509 153.19611502 -119 152 C-115 156.625 -115 156.625 -115 160 C-114.34 160 -113.68 160 -113 160 C-112.01 162.31 -111.02 164.62 -110 167 C-113.91184629 170.36268326 -117.94569869 172.72222041 -122.5 175.0625 C-126.74192885 177.26746301 -130.92860881 179.4866989 -135 182 C-134.11699219 181.80664062 -133.23398438 181.61328125 -132.32421875 181.4140625 C-126.55958754 180.16330471 -120.79346501 178.92324709 -115 177.8125 C-114.175 177.65394531 -113.35 177.49539062 -112.5 177.33203125 C-106.80391087 176.57551941 -103.56937778 176.77983998 -98.75 180.0625 C-97.79351562 180.70445312 -96.83703125 181.34640625 -95.8515625 182.0078125 C-92.45817463 184.37853553 -89.07377499 186.76111525 -85.703125 189.1640625 C-81.41912302 192.07371702 -76.95576051 194.6772724 -72.4921875 197.30078125 C-71.66976562 197.86152344 -70.84734375 198.42226562 -70 199 C-70 199.66 -70 200.32 -70 201 C-69.46375 201.268125 -68.9275 201.53625 -68.375 201.8125 C-65.58333333 203.20833333 -62.79166667 204.60416667 -60 206 C-59.6875 209.1875 -59.6875 209.1875 -60 213 C-62.25 215.5625 -62.25 215.5625 -65 218 C-66.35162508 219.98768394 -67.68693567 221.9866347 -69 224 C-70 225 -71 226 -72 227 C-72.33 227.99 -72.66 228.98 -73 230 C-57.52591721 229.63706842 -48.22080843 226.42335008 -37.3046875 215.23828125 C-35 213 -35 213 -32 212 C-32 211.34 -32 210.68 -32 210 C-31.34 209.67 -30.68 209.34 -30 209 C-29.53045739 205.95418731 -29.53045739 205.95418731 -29.375 202.4375 C-29.30023438 201.23996094 -29.22546875 200.04242188 -29.1484375 198.80859375 C-29.09945312 197.88175781 -29.05046875 196.95492187 -29 196 C-27.19140625 196.1328125 -27.19140625 196.1328125 -25 197 C-23.40234375 199.6171875 -23.40234375 199.6171875 -21.9375 202.875 C-20.26275599 206.5621022 -18.90483487 209.21715295 -16 212 C-14.578125 214.33984375 -14.578125 214.33984375 -13.25 216.9375 C-12.80140625 217.79214844 -12.3528125 218.64679688 -11.890625 219.52734375 C-10.89387124 222.29464694 -10.82218929 223.33590435 -12 226 C-17.22727273 231 -17.22727273 231 -21 231 C-21.22171875 231.5775 -21.4434375 232.155 -21.671875 232.75 C-23.40324431 235.6831433 -25.46578978 237.05257427 -28.25 239 C-29.73113281 240.04607422 -29.73113281 240.04607422 -31.2421875 241.11328125 C-33.27100975 242.50127154 -35.30640128 243.86078092 -37.375 245.1875 C-40.10895743 246.95887037 -40.10895743 246.95887037 -42.5 249.5 C-45.15058882 252.15058882 -47.77008653 254.10418123 -51 256 C-51.99 256 -52.98 256 -54 256 C-54.33 256.99 -54.66 257.98 -55 259 C-56.5234375 260.421875 -56.5234375 260.421875 -58.375 261.75 C-59.28378906 262.42289062 -59.28378906 262.42289062 -60.2109375 263.109375 C-62 264 -62 264 -65 263 C-65.33 261.35 -65.66 259.7 -66 258 C-66.45375 258.66 -66.9075 259.32 -67.375 260 C-67.91125 260.66 -68.4475 261.32 -69 262 C-69.66 262 -70.32 262 -71 262 C-71.20625 262.721875 -71.4125 263.44375 -71.625 264.1875 C-73.40439243 267.82716634 -75.82285509 269.5360917 -79 272 C-79.7734375 272.8353125 -79.7734375 272.8353125 -80.5625 273.6875 C-82.49062791 275.44796461 -84.55845113 276.14215851 -87 277 C-88 276 -88 276 -88.11352539 274.05053711 C-88.10567017 272.8015564 -88.10567017 272.8015564 -88.09765625 271.52734375 C-88.09282227 270.17866211 -88.09282227 270.17866211 -88.08789062 268.80273438 C-88.07532227 267.38444336 -88.07532227 267.38444336 -88.0625 265.9375 C-88.05798828 264.98810547 -88.05347656 264.03871094 -88.04882812 263.06054688 C-88.0370011 260.70696935 -88.02052025 258.35351523 -88 256 C-88.78375 255.71125 -89.5675 255.4225 -90.375 255.125 C-93 254 -93 254 -95 252 C-95.01030746 252.75977142 -95.02061493 253.51954285 -95.03123474 254.30233765 C-95.12911217 261.45383955 -95.23161256 268.605253 -95.33933926 275.75661278 C-95.39456189 279.43341429 -95.44798081 283.11022376 -95.49731445 286.78710938 C-95.54496779 290.33385866 -95.59731091 293.88051026 -95.65294075 297.4271431 C-95.67335992 298.7819336 -95.69207374 300.13675088 -95.70907402 301.49158859 C-95.73312739 303.38556789 -95.76374383 305.27946043 -95.79467773 307.17333984 C-95.81799416 308.79216568 -95.81799416 308.79216568 -95.84178162 310.44369507 C-96 313 -96 313 -97 315 C-98.8125 314.8125 -98.8125 314.8125 -101 314 C-102.04965071 312.36414818 -103.05470027 310.6982892 -104 309 C-104.14638209 312.99960899 -104.23443323 316.99852058 -104.3125 321 C-104.35439453 322.12535156 -104.39628906 323.25070312 -104.43945312 324.41015625 C-104.54754532 331.80366232 -103.61266458 336.209205 -99 342 C-98.505 342.845625 -98.01 343.69125 -97.5 344.5625 C-95.48961012 347.82938355 -93.25251821 350.8951776 -91 354 C-90.60167969 353.26394531 -90.20335937 352.52789062 -89.79296875 351.76953125 C-89.26316406 350.79371094 -88.73335938 349.81789063 -88.1875 348.8125 C-87.66542969 347.84957031 -87.14335937 346.88664062 -86.60546875 345.89453125 C-86.07566406 344.93933594 -85.54585938 343.98414063 -85 343 C-84.50113281 342.05511719 -84.00226563 341.11023438 -83.48828125 340.13671875 C-82.99714844 339.43160156 -82.50601563 338.72648437 -82 338 C-81.01 338 -80.02 338 -79 338 C-79 346.58 -79 355.16 -79 364 C-74.56865142 361.08934175 -74.56865142 361.08934175 -70.14550781 358.16625977 C-69.58702148 357.80330811 -69.02853516 357.44035645 -68.453125 357.06640625 C-67.60476074 356.5086853 -67.60476074 356.5086853 -66.73925781 355.93969727 C-64.84950138 354.91868765 -63.09607862 354.43567918 -61 354 C-61 353.34 -61 352.68 -61 352 C-58.71125827 350.66141476 -56.41930344 349.32898986 -54.125 348 C-53.47402344 347.6184375 -52.82304687 347.236875 -52.15234375 346.84375 C-47.2265625 344 -47.2265625 344 -45 344 C-45 343.34 -45 342.68 -45 342 C-43.35 341.67 -41.7 341.34 -40 341 C-39.67 340.01 -39.34 339.02 -39 338 C-37.07421875 336.6484375 -37.07421875 336.6484375 -34.6875 335.375 C-33.90761719 334.94960938 -33.12773437 334.52421875 -32.32421875 334.0859375 C-30 333 -30 333 -27.76953125 332.5390625 C-27.18558594 332.36117188 -26.60164062 332.18328125 -26 332 C-25.67 331.01 -25.34 330.02 -25 329 C-22.71656402 328.05149582 -20.41923272 327.47853022 -18.03125 326.84375 C-17.02578125 326.42609375 -17.02578125 326.42609375 -16 326 C-15.67 325.01 -15.34 324.02 -15 323 C-12.59375 321.3515625 -12.59375 321.3515625 -9.5 319.625 C-8.40429688 319.00625 -7.30859375 318.3875 -6.1796875 317.75 C-4.35415111 316.74528218 -2.52700081 315.74345807 -0.6953125 314.75 C4.54549707 311.90216386 9.55913033 308.75934791 14.55932617 305.51269531 C19.6188521 302.2297398 24.74153909 299.06538634 29.88671875 295.91796875 C33.8067741 293.50297857 37.68767529 291.02970839 41.5625 288.54296875 C44 287 44 287 46.76171875 285.59375 C49.18508021 284.20801577 49.18508021 284.20801577 49.70703125 281.73828125 C49.74183594 280.93777344 49.77664063 280.13726562 49.8125 279.3125 C49.86019531 278.50425781 49.90789062 277.69601562 49.95703125 276.86328125 C49.97121094 276.24839844 49.98539063 275.63351562 50 275 C45.55336299 277.42543837 41.3723052 280.08103297 37.1875 282.9375 C33.54239341 285.39624891 29.97078654 287.61371654 26 289.5 C22.21547824 291.30215322 18.83428679 293.38164732 15.375 295.75 C10.49871169 299.07705088 5.51569075 302.0983503 0.375 305 C-0.32447754 305.39799805 -1.02395508 305.79599609 -1.74462891 306.20605469 C-6.74931735 309 -6.74931735 309 -9 309 C-9 309.66 -9 310.32 -9 311 C-10.87109375 312.33203125 -10.87109375 312.33203125 -13.4375 313.8125 C-14.26121094 314.29332031 -15.08492187 314.77414062 -15.93359375 315.26953125 C-17.58727444 316.20275487 -19.24269613 317.13305736 -20.90771484 318.04589844 C-27.62571253 321.73475112 -34.18752577 325.66741837 -40.75 329.625 C-41.85988281 330.29273438 -42.96976563 330.96046875 -44.11328125 331.6484375 C-46.16935684 332.88554676 -48.2250668 334.12326409 -50.28027344 335.36181641 C-51.1777832 335.90241699 -52.07529297 336.44301758 -53 337 C-53.90008789 337.56509277 -54.80017578 338.13018555 -55.72753906 338.71240234 C-58 340 -58 340 -60 340 C-60.33 340.99 -60.66 341.98 -61 343 C-63.0625 343.6875 -63.0625 343.6875 -65 344 C-66.84744968 339.27791861 -67.36561884 334.96111132 -67.375 329.9375 C-67.39949219 329.24333984 -67.42398438 328.54917969 -67.44921875 327.83398438 C-67.4687423 324.40760127 -67.1279091 322.21887359 -65.390625 319.24609375 C-62.58309595 316.60830094 -59.77235972 314.94044056 -56.375 313.125 C-51.13263909 310.25897653 -46.24326757 307.16767999 -41.38671875 303.67578125 C-30.45454545 296 -30.45454545 296 -26 296 C-25.67 295.01 -25.34 294.02 -25 293 C-22.62890625 291.38671875 -22.62890625 291.38671875 -19.5625 289.6875 C-17.93828125 288.77291016 -17.93828125 288.77291016 -16.28125 287.83984375 C-15.1984375 287.23269531 -14.115625 286.62554687 -13 286 C-11.18298035 284.92426446 -9.37003437 283.84159831 -7.5625 282.75 C-6.80066406 282.29109375 -6.03882813 281.8321875 -5.25390625 281.359375 C-4.51011719 280.91078125 -3.76632812 280.4621875 -3 280 C-2.13632812 279.49339844 -1.27265625 278.98679687 -0.3828125 278.46484375 C2.13045428 276.9918231 2.13045428 276.9918231 4.6875 274.8125 C7 273 7 273 9 273 C9.25910156 272.47019531 9.51820313 271.94039063 9.78515625 271.39453125 C11.27509518 268.4577706 12.85846084 265.57731145 14.4375 262.6875 C16.87106372 258.18970759 19.06574262 253.7281847 21 249 C22 248 22 248 24.5625 247.9375 C25.366875 247.958125 26.17125 247.97875 27 248 C27 248.66 27 249.32 27 250 C27.66 250 28.32 250 29 250 C30.12298758 247.75402484 30.35503517 246.00768055 30.68359375 243.51953125 C30.80557129 242.60953369 30.92754883 241.69953613 31.05322266 240.76196289 C31.18003418 239.78864014 31.3068457 238.81531738 31.4375 237.8125 C31.56946777 236.8217749 31.70143555 235.8310498 31.83740234 234.81030273 C32.22802988 231.87393507 32.61422385 228.93700833 33 226 C33.37368422 223.18732307 33.74944484 220.37492811 34.125 217.5625 C34.27195312 216.45003906 34.41890625 215.33757812 34.5703125 214.19140625 C35.02807846 210.79145361 35.5106308 207.39553543 36 204 C41.75 204.875 41.75 204.875 44 206 C43.56558594 204.783125 43.13117188 203.56625 42.68359375 202.3125 C40.68407678 196.30808542 39.38657109 190.18204226 38.0625 184 C37.53722946 181.59227956 37.01118857 179.18472705 36.484375 176.77734375 C36.23107422 175.6157373 35.97777344 174.45413086 35.71679688 173.25732422 C33.34054274 162.45896499 30.72525454 151.71520534 28 141 C25.82680472 145.86795742 24.55933658 149.1515051 25.55078125 154.53515625 C26.15305789 157.83982197 26.48811482 161.16352863 26.875 164.5 C27.51312542 169.32879979 28.32589463 173.44303342 30.26953125 177.8828125 C31.93736272 182.71684811 32.34516467 187.94621202 33 193 C29.16874998 194.02756439 26.89449638 193.9457076 23.1875 192.5625 C22.39730469 192.27503906 21.60710937 191.98757812 20.79296875 191.69140625 C20.20128906 191.46324219 19.60960937 191.23507813 19 191 C19.78576215 196.59099993 20.62918943 202.17163921 21.5 207.75 C21.63019531 208.59949219 21.76039063 209.44898438 21.89453125 210.32421875 C22.08595703 211.54818359 22.08595703 211.54818359 22.28125 212.796875 C22.45237305 213.90047363 22.45237305 213.90047363 22.62695312 215.02636719 C22.99202517 217.20029217 22.99202517 217.20029217 24 220 C25.15371474 228.77699439 23.03656683 233.93032362 18 241 C17.0391942 242.45670557 16.08081682 243.91501606 15.125 245.375 C14.08409588 246.91718163 13.04235733 248.45880023 12 250 C10.62376927 252.06167898 9.24882557 254.12421753 7.875 256.1875 C6.58333333 258.125 5.29166667 260.0625 4 262 C3.35804688 263.05703125 2.71609375 264.1140625 2.0546875 265.203125 C-0.10671344 268.14526012 -1.45070399 269.13875921 -4.75 270.5625 C-10.481117 273.19594404 -15.71397179 276.14940573 -20.625 280.125 C-23.28909502 282.22823291 -25.9405452 283.52910827 -29 285 C-33.99000457 287.61815596 -38.66141341 290.40219929 -43.19140625 293.75 C-45.91518174 295.63252301 -48.80998255 297.16210599 -51.72265625 298.73046875 C-54.66893804 300.37290714 -57.47041272 302.20758052 -60.2734375 304.08203125 C-62 305 -62 305 -65 305 C-66.06309567 299.82682579 -66.11693938 294.87630664 -66.0625 289.625 C-66.05798828 288.79355469 -66.05347656 287.96210938 -66.04882812 287.10546875 C-66.03713164 285.07028103 -66.01919935 283.03513077 -66 281 C-65.0409375 280.5978125 -65.0409375 280.5978125 -64.0625 280.1875 C-61.66868314 279.11332248 -61.66868314 279.11332248 -61 276 C-58.90365138 274.32811866 -56.83952229 272.80873435 -54.625 271.3125 C-54.03460938 270.89677734 -53.44421875 270.48105469 -52.8359375 270.05273438 C-48.38465979 267 -48.38465979 267 -45 267 C-44.67 266.01 -44.34 265.02 -44 264 C-41.91015625 262.1640625 -41.91015625 262.1640625 -39 260 C-38.42233887 259.56526367 -37.84467773 259.13052734 -37.24951172 258.68261719 C-35.32035573 257.23537409 -33.38027194 255.80390207 -31.4375 254.375 C-30.77814453 253.88515625 -30.11878906 253.3953125 -29.43945312 252.890625 C-28.79814453 252.41882813 -28.15683594 251.94703125 -27.49609375 251.4609375 C-26.92044678 251.03603027 -26.3447998 250.61112305 -25.75170898 250.17333984 C-24 249 -24 249 -21.92993164 247.99072266 C-19.08613831 246.53087277 -17.2255966 244.27858699 -15 242 C-9.49728261 237 -9.49728261 237 -7 237 C-7 236.34 -7 235.68 -7 235 C-5.33720673 233.9935725 -3.67016516 232.99414593 -2 232 C1.90895023 226.13657465 -0.50938787 216.94367281 -1.63671875 210.1796875 C-2.64394494 205.24481211 -3.69267101 200.47282286 -5.625 195.8125 C-7.27912773 191.8064094 -7.52364245 187.86226687 -7.81640625 183.56640625 C-8.02357518 180.67044911 -8.46048094 177.8517436 -9 175 C-10.32 174.67 -11.64 174.34 -13 174 C-13 173.34 -13 172.68 -13 172 C-13.804375 171.62875 -13.804375 171.62875 -14.625 171.25 C-17 170 -17 170 -19.375 167.9375 C-23.65923028 164.94075862 -28.91177693 165.36190697 -33.953125 165.17578125 C-37 165 -37 165 -39 164 C-39.74609375 161.8046875 -39.74609375 161.8046875 -40.4375 158.875 C-40.70433594 157.79734375 -40.97117187 156.7196875 -41.24609375 155.609375 C-42 152 -42 152 -42.47265625 148.078125 C-43.21683357 140.80935451 -43.21683357 140.80935451 -47.1796875 135.03125 C-49.88267333 133.57387733 -49.88267333 133.57387733 -52.8359375 132.37890625 C-56.38216622 130.83345102 -59.38089351 128.81278883 -62.5 126.5625 C-66.6423554 123.63667277 -70.80679557 120.75969115 -75.0625 118 C-75.91972656 117.443125 -76.77695312 116.88625 -77.66015625 116.3125 C-79.85765339 115.07984718 -81.49592921 114.25519193 -84 114 C-87.59345562 117.02606789 -90.48114301 120.711037 -93.515625 124.28515625 C-95.57689379 126.66646415 -97.67680891 128.87040817 -100 131 C-100.66 131 -101.32 131 -102 131 C-102.33 131.99 -102.66 132.98 -103 134 C-104.32 134 -105.64 134 -107 134 C-106.85816304 132.24967156 -106.71136571 130.49974466 -106.5625 128.75 C-106.44068359 127.28820312 -106.44068359 127.28820312 -106.31640625 125.796875 C-106.04925416 123.43538247 -105.64628032 121.28098935 -105 119 C-111.02512053 122.30884088 -111.02512053 122.30884088 -116.9375 125.8125 C-119 127 -119 127 -121 127 C-120.65775391 128.64548828 -120.65775391 128.64548828 -120.30859375 130.32421875 C-120.01772835 131.77854576 -119.72739157 133.23297856 -119.4375 134.6875 C-119.28603516 135.40873047 -119.13457031 136.12996094 -118.97851562 136.87304688 C-117.48118282 144.49899768 -117.48118282 144.49899768 -119 148 C-121.36328125 149.36328125 -121.36328125 149.36328125 -124.3125 150.3125 C-125.27800781 150.63863281 -126.24351562 150.96476563 -127.23828125 151.30078125 C-130 152 -130 152 -134 152 C-133.814375 151.01 -133.62875 150.02 -133.4375 149 C-132.91528534 145.2574616 -133.18738336 141.81494828 -133.59277344 138.06640625 C-134.51628397 129.11861528 -134.51628397 129.11861528 -132.8046875 125.41015625 C-131.29501742 123.62699522 -129.97713837 122.24134257 -128 121 C-127.34 121 -126.68 121 -126 121 C-125.7525 120.38125 -125.505 119.7625 -125.25 119.125 C-123.77952822 116.62519797 -122.58596924 116.16683978 -120 115 C-119.98018066 113.92556641 -119.96036133 112.85113281 -119.93994141 111.74414062 C-119.58916166 93.27560617 -119.2110952 74.81384225 -118.0625 56.375 C-117.98789551 55.13556641 -117.91329102 53.89613281 -117.83642578 52.61914062 C-116.41761568 31.25284705 -116.41761568 31.25284705 -114 24 C-110.54847139 24.25566879 -109.75511431 25.26197074 -107.3125 27.875 C-105 31 -105 31 -104 34 C-102.33779162 35.67111306 -100.6701425 37.33681643 -99 39 C-96.9154813 41.54190805 -94.9573924 44.17200746 -93 46.8125 C-92.49210937 47.48603516 -91.98421875 48.15957031 -91.4609375 48.85351562 C-88.45966685 52.87444874 -85.70357655 56.96558908 -83.13305664 61.27539062 C-81.42957781 63.8682315 -79.24244051 65.87255644 -77 68 C-74.29646592 71.18062832 -72.10549683 74.40310959 -70 78 C-67.6258073 82.16292572 -67.6258073 82.16292572 -64 85 C-61.28239892 85.07181821 -58.59140612 85.09299506 -55.875 85.0625 C-55.12089844 85.05798828 -54.36679687 85.05347656 -53.58984375 85.04882812 C-51.72652873 85.03703499 -49.86325445 85.01909942 -48 85 C-47.88527344 84.17886719 -47.77054688 83.35773438 -47.65234375 82.51171875 C-46.90614982 78.49478259 -45.79236686 74.70289518 -44.5625 70.8125 C-44.34529297 70.10158203 -44.12808594 69.39066406 -43.90429688 68.65820312 C-42.88722857 65.41152563 -41.89984944 62.84977417 -40 60 C-39.71125 58.906875 -39.4225 57.81375 -39.125 56.6875 C-38.15328362 53.50242963 -37.13715171 51.53905445 -35.21875 48.88671875 C-32.39124658 44.50952596 -30.27288841 39.68215011 -28 35 C-27.34 35 -26.68 35 -26 35 C-25.92652344 34.00226562 -25.92652344 34.00226562 -25.8515625 32.984375 C-24.6257873 28.68853899 -22.1026274 25.73616681 -19.375 22.25 C-18.83101562 21.54206299 -18.28703125 20.83412598 -17.7265625 20.10473633 C-16.64659145 18.70125609 -15.56302009 17.30053773 -14.47558594 15.90283203 C-13.23211617 14.29932386 -12.00827594 12.68062152 -10.7890625 11.05859375 C-10.19867188 10.27613281 -9.60828125 9.49367188 -9 8.6875 C-8.505 8.03136719 -8.01 7.37523437 -7.5 6.69921875 C-5.82237256 4.79878141 -4.11906624 3.38850107 -2 2 C-1.34 2 -0.68 2 0 2 C0 1.34 0 0.68 0 0 Z M2 50 C2 50.66 2 51.32 2 52 C1.10861328 52.41958984 1.10861328 52.41958984 0.19921875 52.84765625 C-6.58416319 56.4020038 -11.13553342 62.3944965 -15.7890625 68.31640625 C-18 71 -18 71 -20.63671875 73.48828125 C-27.23497592 80.50097441 -28.93422512 93.58596142 -29.25 103 C-29.22840733 106.18138229 -29.22840733 106.18138229 -27 109 C-26.01 109 -25.02 109 -24 109 C-23.80889648 108.32533691 -23.61779297 107.65067383 -23.42089844 106.95556641 C-22.53607853 103.84379003 -21.64309031 100.73441238 -20.75 97.625 C-20.44964844 96.56410156 -20.14929688 95.50320312 -19.83984375 94.41015625 C-18.13183155 88.48662456 -16.23200257 82.77193936 -13.81640625 77.09765625 C-12.78237856 74.44084825 -12.29781798 71.82927077 -12 69 C-10.68 68.67 -9.36 68.34 -8 68 C-8.04125 68.9075 -8.0825 69.815 -8.125 70.75 C-8.13805134 74.03893708 -7.64257764 77.02806139 -7 80.25 C-4.85821367 92.70988106 -4.40526159 104.75330079 -9.90625 116.3359375 C-11.08885871 119.21643443 -11.5295996 120.92934078 -11 124 C-9.28252507 125.89137703 -9.28252507 125.89137703 -7 127.3125 C-6.2575 127.82425781 -5.515 128.33601563 -4.75 128.86328125 C-4.1725 129.23839844 -3.595 129.61351562 -3 130 C-2.55269531 129.28714844 -2.10539062 128.57429688 -1.64453125 127.83984375 C-1.03996094 126.88207031 -0.43539062 125.92429687 0.1875 124.9375 C0.82171875 123.91785156 1.4559375 122.89820313 2.109375 121.84765625 C3.61855448 119.57453262 5.08214903 117.83164887 6.9375 115.875 C12.65745943 107.99124013 8.7549245 92.1984813 7.5078125 83.3984375 C6.70785499 77.17040469 6.55481279 70.89477702 6.34204102 64.62426758 C6.1655033 59.67357519 5.81140864 54.88856941 5 50 C4.01 50 3.02 50 2 50 Z M-101 67 C-100.8594438 70.33357738 -100.71158198 73.66679389 -100.5625 77 C-100.52318359 77.93457031 -100.48386719 78.86914062 -100.44335938 79.83203125 C-100.19609347 85.27188123 -99.75680832 90.60694577 -99 96 C-94.2473436 94.47176394 -94.2473436 94.47176394 -91 91 C-91.64622499 87.60755236 -91.64622499 87.60755236 -92.3828125 85.2734375 C-93.38650379 81.57629618 -93.66512764 77.80696999 -94 74 C-94.66 74 -95.32 74 -96 74 C-96.268125 73.21625 -96.53625 72.4325 -96.8125 71.625 C-97.84814432 68.71885077 -97.84814432 68.71885077 -101 67 Z " fill="#232321" transform="translate(361,17)"/>
<path d="M0 0 C4.80204369 0.35136905 7.36843497 1.75490066 11.0546875 4.58984375 C14.49118684 7.08096074 18.25973331 9.00688737 22 11 C22 11.66 22 12.32 22 13 C22.66 13.04125 23.32 13.0825 24 13.125 C27.70483649 14.20557731 29.99929149 16.06834221 32.99609375 18.4453125 C34.77934987 19.82881335 36.57602671 21.01401275 38.5 22.1875 C39.325 22.785625 40.15 23.38375 41 24 C41 24.99 41 25.98 41 27 C39.97519531 27.39832031 38.95039063 27.79664063 37.89453125 28.20703125 C36.53376242 28.74195417 35.17309043 29.27712349 33.8125 29.8125 C33.13896484 30.07353516 32.46542969 30.33457031 31.77148438 30.60351562 C27.93701564 32.11859839 24.52708238 33.84489803 21 36 C19.63744814 36.49411221 18.26250061 36.95602923 16.875 37.375 C13.90576713 38.43902154 13.14178846 38.80931897 11.1875 41.4375 C10.795625 42.283125 10.40375 43.12875 10 44 C9.01755155 45.34631825 8.02323436 46.68441297 7 48 C1.48192911 47.60585208 -0.90882898 45.57977464 -5 42 C-6.97522846 40.95191959 -8.97481509 39.9479589 -11 39 C-12.67623498 38.01612294 -14.34634594 37.02137457 -16 36 C-15.25 28.25 -15.25 28.25 -13 26 C-12.277035 24.29117363 -11.55620939 22.58134078 -10.85546875 20.86328125 C-10 19 -10 19 -7.9375 15.9375 C-5.99833651 12.99747793 -4.96304951 10.37067328 -4 7 C-3.34 7 -2.68 7 -2 7 C-1.855625 6.21625 -1.71125 5.4325 -1.5625 4.625 C-1 2 -1 2 0 0 Z " fill="#282826" transform="translate(272,138)"/>
<path d="M0 0 C0 0.99 0 1.98 0 3 C0.3062434 4.33981486 0.63451555 5.67511887 1 7 C2.98 7 4.96 7 7 7 C7 6.01 7 5.02 7 4 C10.3 3.34 13.6 2.68 17 2 C14.30928396 4.01803703 11.70356891 5.89679003 8.875 7.6875 C8.19179687 8.12449219 7.50859375 8.56148437 6.8046875 9.01171875 C5 10 5 10 3 10 C3.22816406 11.09699219 3.45632812 12.19398438 3.69140625 13.32421875 C3.98227165 14.77854576 4.27260843 16.23297856 4.5625 17.6875 C4.71396484 18.40873047 4.86542969 19.12996094 5.02148438 19.87304688 C6.51881718 27.49899768 6.51881718 27.49899768 5 31 C2.63671875 32.36328125 2.63671875 32.36328125 -0.3125 33.3125 C-1.76076172 33.80169922 -1.76076172 33.80169922 -3.23828125 34.30078125 C-6 35 -6 35 -10 35 C-9.814375 34.01 -9.62875 33.02 -9.4375 32 C-8.91528534 28.2574616 -9.18738336 24.81494828 -9.59277344 21.06640625 C-10.51628397 12.11861528 -10.51628397 12.11861528 -8.8046875 8.41015625 C-7.29501742 6.62699522 -5.97713837 5.24134257 -4 4 C-3.34 4 -2.68 4 -2 4 C-1.34 2.68 -0.68 1.36 0 0 Z " fill="#353634" transform="translate(237,134)"/>
<path d="M0 0 C1.98 0.495 1.98 0.495 4 1 C4 1.99 4 2.98 4 4 C3.67 3.67 3.34 3.34 3 3 C2.9845388 4.13965714 2.9845388 4.13965714 2.96876526 5.30233765 C2.87088783 12.45383955 2.76838744 19.605253 2.66066074 26.75661278 C2.60543811 30.43341429 2.55201919 34.11022376 2.50268555 37.78710938 C2.45503221 41.33385866 2.40268909 44.88051026 2.34705925 48.4271431 C2.32664008 49.7819336 2.30792626 51.13675088 2.29092598 52.49158859 C2.26687261 54.38556789 2.23625617 56.27946043 2.20532227 58.17333984 C2.18977798 59.25255707 2.1742337 60.33177429 2.15821838 61.44369507 C2 64 2 64 1 66 C0.34 65.67 -0.32 65.34 -1 65 C-0.67 43.55 -0.34 22.1 0 0 Z " fill="#C2C2C1" transform="translate(263,266)"/>
<path d="M0 0 C0.33 0.66 0.66 1.32 1 2 C0.0625 4.625 0.0625 4.625 -1 7 C-1.66 7 -2.32 7 -3 7 C-3 34.39 -3 61.78 -3 90 C-3.33 90 -3.66 90 -4 90 C-4.09274145 79.15145814 -4.16378617 68.30301083 -4.20724869 57.45415306 C-4.22811016 52.41639564 -4.25640163 47.37890975 -4.30175781 42.34130859 C-4.34526674 37.47836265 -4.36914795 32.61567763 -4.37950897 27.75255203 C-4.38689127 25.89860553 -4.40130728 24.04467307 -4.42292023 22.19083786 C-4.45202154 19.59094297 -4.45595323 16.99212179 -4.45410156 14.39208984 C-4.46848267 13.62819946 -4.48286377 12.86430908 -4.49768066 12.07727051 C-4.45632457 6.69938708 -3.24499823 4.07430457 0 0 Z " fill="#717071" transform="translate(239,301)"/>
<path d="M0 0 C0.33 0 0.66 0 1 0 C3.20337033 11.70540485 3.22082273 23.13332646 3 35 C2.34 35 1.68 35 1 35 C0.97494385 34.39639648 0.9498877 33.79279297 0.92407227 33.17089844 C0.80608497 30.3638175 0.68492174 27.55689111 0.5625 24.75 C0.51883301 23.74686768 0.47516602 22.74373535 0.43017578 21.71020508 C0.1448523 15.43258089 -0.25426925 9.19942239 -0.9140625 2.94921875 C-0.94242187 2.30597656 -0.97078125 1.66273437 -1 1 C-0.67 0.67 -0.34 0.34 0 0 Z " fill="#8A8A87" transform="translate(392,102)"/>
<path d="M0 0 C0.99 0 1.98 0 3 0 C3 7.92 3 15.84 3 24 C2.34 23.67 1.68 23.34 1 23 C1 17.06 1 11.12 1 5 C0.01 4.67 -0.98 4.34 -2 4 C-1.34 2.68 -0.68 1.36 0 0 Z " fill="#353535" transform="translate(279,355)"/>
<path d="M0 0 C0.66 0.33 1.32 0.66 2 1 C1.01 2.485 1.01 2.485 0 4 C-1.485 4.2165625 -1.485 4.2165625 -3 4.4375 C-3.99 4.623125 -4.98 4.80875 -6 5 C-7.39238047 6.86747263 -7.39238047 6.86747263 -8 9 C-8.33 9.66 -8.66 10.32 -9 11 C-9.70125 10.9175 -10.4025 10.835 -11.125 10.75 C-14.90659891 11.07883469 -16.89458679 12.90722153 -20 15 C-20.99 14.67 -21.98 14.34 -23 14 C-19.85306352 12.05659409 -16.70421809 10.11642825 -13.55078125 8.18359375 C-11.35144325 6.83503824 -9.16342898 5.47294943 -6.98046875 4.09765625 C-6.10003906 3.54980469 -5.21960938 3.00195312 -4.3125 2.4375 C-3.52488281 1.94121094 -2.73726563 1.44492187 -1.92578125 0.93359375 C-1.29027344 0.62550781 -0.65476562 0.31742187 0 0 Z " fill="#636263" transform="translate(391,313)"/>
<path d="M0 0 C0.66 0.33 1.32 0.66 2 1 C-1.31990188 8.22566879 -5.23064355 16.55156576 -12 21 C-10.86235572 18.72471143 -9.72025938 16.4526814 -8.5625 14.1875 C-6.91747477 10.83164853 -5.44693435 7.44508179 -4 4 C-3.01 4 -2.02 4 -1 4 C-0.67 2.68 -0.34 1.36 0 0 Z " fill="#6A6A69" transform="translate(382,248)"/>
<path d="M0 0 C2.29013653 3.4352048 2.17842973 4.985331 2 9 C0.02 9.33 -1.96 9.66 -4 10 C-3.67 12.64 -3.34 15.28 -3 18 C-3.33 17.34 -3.66 16.68 -4 16 C-4.66 16 -5.32 16 -6 16 C-6.33 13.03 -6.66 10.06 -7 7 C-4.36 7 -1.72 7 1 7 C0.67 4.69 0.34 2.38 0 0 Z " fill="#7B7B7A" transform="translate(430,215)"/>
<path d="M0 0 C1.32 0 2.64 0 4 0 C4.33 3.96 4.66 7.92 5 12 C4.67 10.68 4.34 9.36 4 8 C2.35 7.67 0.7 7.34 -1 7 C-1.04254356 5.00045254 -1.04080783 2.99958364 -1 1 C-0.67 0.67 -0.34 0.34 0 0 Z " fill="#5A5A58" transform="translate(349,85)"/>
<path d="M0 0 C2 2 2 2 2.3125 4.9375 C1.94984753 8.49149418 1.49334039 8.69135149 -1 11 C-1.45375 12.155 -1.9075 13.31 -2.375 14.5 C-4.13427132 18.28919978 -5.28195524 19.29170916 -9 21 C-7.59318637 17.9824867 -5.90103366 15.4323703 -3.9375 12.75 C-0.96487281 8.38870026 -0.19039771 5.23593699 0 0 Z " fill="#797978" transform="translate(370,121)"/>
<path d="M0 0 C0.6875 1.6875 0.6875 1.6875 1 4 C-1.26153846 8.63076923 -1.26153846 8.63076923 -4 10 C-4.33 10.99 -4.66 11.98 -5 13 C-7.31 13.33 -9.62 13.66 -12 14 C-7.375 9.125 -7.375 9.125 -4 8 C-2.87483915 6.16715557 -2.87483915 6.16715557 -2 4 C-1.33333333 2.66666667 -0.66666667 1.33333333 0 0 Z " fill="#666666" transform="translate(374,282)"/>
<path d="M0 0 C2.97 0.495 2.97 0.495 6 1 C6 1.66 6 2.32 6 3 C6.56332031 3.27972656 7.12664062 3.55945313 7.70703125 3.84765625 C10.04617171 5.02320384 12.37488454 6.21047593 14.6875 7.4375 C15.47511719 7.84871094 16.26273437 8.25992188 17.07421875 8.68359375 C19 10 19 10 20 13 C16.22211794 11.64401019 13.24252141 9.91839446 10 7.5625 C7.43525089 5.70706431 4.91495378 3.94979911 2.1875 2.33984375 C1.465625 1.89769531 0.74375 1.45554688 0 1 C0 0.67 0 0.34 0 0 Z " fill="#7F7F7F" transform="translate(284,133)"/>
<path d="M0 0 C1.32 0.66 2.64 1.32 4 2 C-0.48251126 5.13775788 -5.07053811 7.63519058 -10 10 C-10.99 10.495 -10.99 10.495 -12 11 C-10.68774191 7.06322574 -8.8038606 6.1728218 -5.4375 3.8125 C-4.42558594 3.09707031 -3.41367187 2.38164062 -2.37109375 1.64453125 C-1.58863281 1.10183594 -0.80617188 0.55914062 0 0 Z " fill="#686767" transform="translate(311,285)"/>
<path d="M0 0 C1.32 0.33 2.64 0.66 4 1 C5.046875 2.84765625 5.046875 2.84765625 5.75 5.0625 C5.99234375 5.79597656 6.2346875 6.52945313 6.484375 7.28515625 C6.65453125 7.85105469 6.8246875 8.41695312 7 9 C6.34 9 5.68 9 5 9 C5 8.34 5 7.68 5 7 C3.68 6.34 2.36 5.68 1 5 C1 7.64 1 10.28 1 13 C0.67 13 0.34 13 0 13 C0 8.71 0 4.42 0 0 Z " fill="#565656" transform="translate(332,213)"/>
<path d="M0 0 C0.66 0.33 1.32 0.66 2 1 C2.21432579 7.64409958 1.51233701 13.53205867 0 20 C-0.33 20 -0.66 20 -1 20 C-1.18451025 6.3667426 -1.18451025 6.3667426 0 0 Z " fill="#757575" transform="translate(245,52)"/>
<path d="M0 0 C0.33 0.66 0.66 1.32 1 2 C0.0625 4.625 0.0625 4.625 -1 7 C-1.66 7 -2.32 7 -3 7 C-3 13.6 -3 20.2 -3 27 C-3.33 27 -3.66 27 -4 27 C-4.11689626 23.62529496 -4.18747934 20.2511157 -4.25 16.875 C-4.28351563 15.92367188 -4.31703125 14.97234375 -4.3515625 13.9921875 C-4.43519011 7.9709995 -3.95355479 4.62285737 0 0 Z " fill="#605F5F" transform="translate(239,301)"/>
<path d="M0 0 C1.98 0 3.96 0 6 0 C9 5.75 9 5.75 9 8 C10.98 7.67 12.96 7.34 15 7 C15 7.66 15 8.32 15 9 C13.02 9.33 11.04 9.66 9 10 C8.67 9.01 8.34 8.02 8 7 C7.34 7 6.68 7 6 7 C6 5.68 6 4.36 6 3 C5.34 3 4.68 3 4 3 C4 2.34 4 1.68 4 1 C2.68 0.67 1.36 0.34 0 0 Z " fill="#7B7B7A" transform="translate(188,207)"/>
<path d="M0 0 C0.66 0.33 1.32 0.66 2 1 C0.77658413 4.67024761 -0.83514059 5.3606842 -4.14453125 7.1484375 C-6.39478859 8.18118719 -8.54579041 8.70252005 -11 9 C-10.34 8.01 -9.68 7.02 -9 6 C-8.01 6 -7.02 6 -6 6 C-6 5.34 -6 4.68 -6 4 C-4.03852126 2.61061923 -2.03833424 1.2739589 0 0 Z " fill="#646462" transform="translate(306,365)"/>
<path d="M0 0 C0.66 0.33 1.32 0.66 2 1 C-1.33562767 5.51290803 -3.33289301 7.68206814 -9 9 C-9 9.66 -9 10.32 -9 11 C-9.66 10.67 -10.32 10.34 -11 10 C-7.50640535 6.40365256 -3.88901869 3.16548033 0 0 Z " fill="#6F6F6F" transform="translate(352,254)"/>
<path d="M0 0 C0.66 0 1.32 0 2 0 C2.103125 0.639375 2.20625 1.27875 2.3125 1.9375 C2.539375 2.618125 2.76625 3.29875 3 4 C3.99 4.33 4.98 4.66 6 5 C7.625 7.9375 7.625 7.9375 9 11 C9.33 11.66 9.66 12.32 10 13 C6.37114422 11.54845769 4.84567327 9.7599362 2.75 6.5 C1.96882813 5.30890625 1.96882813 5.30890625 1.171875 4.09375 C0 2 0 2 0 0 Z " fill="#777777" transform="translate(256,418)"/>
<path d="M0 0 C0.66 0 1.32 0 2 0 C2.86916887 1.40751221 3.71985149 2.8264521 4.5625 4.25 C5.03816406 5.03890625 5.51382812 5.8278125 6.00390625 6.640625 C7.13022151 9.30844625 7.0169313 10.34501768 6 13 C5.67 13 5.34 13 5 13 C4 10 3 7 2 4 C1.01 4.33 0.02 4.66 -1 5 C-0.67 3.35 -0.34 1.7 0 0 Z " fill="#565655" transform="translate(343,230)"/>
<path d="M0 0 C-2.4453385 2.96527758 -4.44602347 3.55582214 -8.1875 4.1875 C-9.08855469 4.34605469 -9.98960937 4.50460938 -10.91796875 4.66796875 C-11.94857422 4.83232422 -11.94857422 4.83232422 -13 5 C-13 4.34 -13 3.68 -13 3 C-11.21189234 2.30329584 -9.41937948 1.61788811 -7.625 0.9375 C-6.62726563 0.55464844 -5.62953125 0.17179688 -4.6015625 -0.22265625 C-2 -1 -2 -1 0 0 Z " fill="#656464" transform="translate(209,181)"/>
<path d="M0 0 C1.21970604 3.65911811 0.63942883 4.43881321 -0.875 7.875 C-2.35316747 11.25514519 -3.38625415 14.35670015 -4 18 C-5.125 16.4375 -5.125 16.4375 -6 14 C-5.125 10.25 -5.125 10.25 -4 7 C-3.34 7 -2.68 7 -2 7 C-1.855625 6.21625 -1.71125 5.4325 -1.5625 4.625 C-1 2 -1 2 0 0 Z " fill="#6E6E6C" transform="translate(354,123)"/>
<path d="M0 0 C0.33 0 0.66 0 1 0 C2.10228696 4.40914783 2.07654536 8.48382401 2 13 C1.34 13 0.68 13 0 13 C-0.19397476 11.02145742 -0.38001321 9.0421352 -0.5625 7.0625 C-0.66691406 5.96035156 -0.77132813 4.85820313 -0.87890625 3.72265625 C-0.91886719 2.82417969 -0.95882813 1.92570312 -1 1 C-0.67 0.67 -0.34 0.34 0 0 Z " fill="#666465" transform="translate(392,102)"/>
<path d="M0 0 C4.5929708 3.52127761 5.11941917 7.57747597 6 13 C5.34 13 4.68 13 4 13 C1.99706653 9.99559979 1.50728374 8.29006055 0.875 4.8125 C0.70742188 3.91144531 0.53984375 3.01039062 0.3671875 2.08203125 C0.24601562 1.39496094 0.12484375 0.70789062 0 0 Z " fill="#6E6E6C" transform="translate(372,36)"/>
<path d="M0 0 C0.66 0.33 1.32 0.66 2 1 C1.01 2.485 1.01 2.485 0 4 C-0.30066154 6.75417318 -0.50925299 9.42645147 -0.625 12.1875 C-0.66367187 12.93708984 -0.70234375 13.68667969 -0.7421875 14.45898438 C-0.83628216 16.30559199 -0.91922319 18.1527619 -1 20 C-1.33 20 -1.66 20 -2 20 C-2.05379226 17.04142591 -2.09357093 14.08382279 -2.125 11.125 C-2.14175781 10.28324219 -2.15851563 9.44148438 -2.17578125 8.57421875 C-2.18222656 7.76855469 -2.18867188 6.96289062 -2.1953125 6.1328125 C-2.21102295 5.01737061 -2.21102295 5.01737061 -2.22705078 3.87939453 C-2 2 -2 2 0 0 Z " fill="#848484" transform="translate(297,296)"/>
<path d="M0 0 C0.66 0.33 1.32 0.66 2 1 C1.01 2.98 0.02 4.96 -1 7 C-1.99 7 -2.98 7 -4 7 C-4.33 7.99 -4.66 8.98 -5 10 C-5.66 9.67 -6.32 9.34 -7 9 C-4.69 6.03 -2.38 3.06 0 0 Z " fill="#727272" transform="translate(355,22)"/>
<path d="M0 0 C0.33 0.99 0.66 1.98 1 3 C-0.45264038 3.8638129 -1.9123163 4.71580454 -3.375 5.5625 C-4.59316406 6.27599609 -4.59316406 6.27599609 -5.8359375 7.00390625 C-6.55007813 7.33261719 -7.26421875 7.66132813 -8 8 C-8.66 7.67 -9.32 7.34 -10 7 C-6.7 4.69 -3.4 2.38 0 0 Z " fill="#767675" transform="translate(322,319)"/>
<path d="M0 0 C2 1.375 2 1.375 4 3 C4 3.66 4 4.32 4 5 C4.99 5.33 5.98 5.66 7 6 C6.01 6.495 6.01 6.495 5 7 C4.67 7.66 4.34 8.32 4 9 C1.47740939 7.02579865 1.0070192 6.03254358 0.3125 2.8125 C0.209375 1.884375 0.10625 0.95625 0 0 Z " fill="#555552" transform="translate(435,253)"/>
<path d="M0 0 C0.66 0 1.32 0 2 0 C1.60246179 1.46366342 1.18118616 2.9208935 0.75 4.375 C0.51796875 5.18710938 0.2859375 5.99921875 0.046875 6.8359375 C-1.2214892 9.45785454 -2.32423308 9.99382318 -5 11 C-4.731875 10.484375 -4.46375 9.96875 -4.1875 9.4375 C-2.67650593 6.33598585 -1.34427274 3.17737194 0 0 Z " fill="#6D6D6D" transform="translate(262,157)"/>
<path d="M0 0 C0.33 0 0.66 0 1 0 C1.185625 1.7015625 1.185625 1.7015625 1.375 3.4375 C1.684375 5.2009375 1.684375 5.2009375 2 7 C2.66 7.33 3.32 7.66 4 8 C3.67 8.99 3.34 9.98 3 11 C1.68 11 0.36 11 -1 11 C-0.67 7.37 -0.34 3.74 0 0 Z " fill="#8C8C8C" transform="translate(255,140)"/>
<path d="M0 0 C-1.28716647 1.00578589 -2.57988658 2.00446798 -3.875 3 C-4.95394531 3.8353125 -4.95394531 3.8353125 -6.0546875 4.6875 C-8 6 -8 6 -10 6 C-10 4 -10 4 -8 2 C-7.67 1.34 -7.34 0.68 -7 0 C-2.52459016 -1.26229508 -2.52459016 -1.26229508 0 0 Z " fill="#6E6E67" transform="translate(408,293)"/>
<path d="M0 0 C0.33 0.66 0.66 1.32 1 2 C-1.6234008 4.91488977 -4.71816394 6.88503898 -8 9 C-8.66 8.67 -9.32 8.34 -10 8 C-7.92141021 5.81907964 -5.78143382 4.03609531 -3.3125 2.3125 C-2.68988281 1.87550781 -2.06726563 1.43851562 -1.42578125 0.98828125 C-0.95527344 0.66214844 -0.48476563 0.33601563 0 0 Z " fill="#646464" transform="translate(329,272)"/>
<path d="M0 0 C1.2065625 0.0309375 1.2065625 0.0309375 2.4375 0.0625 C2.1075 1.0525 1.7775 2.0425 1.4375 3.0625 C-2.125 4.75 -2.125 4.75 -5.5625 6.0625 C-3.26136364 0.07954545 -3.26136364 0.07954545 0 0 Z " fill="#565656" transform="translate(385.5625,264.9375)"/>
<path d="M0 0 C2.4375 0.75 2.4375 0.75 5 2 C5.8125 4.125 5.8125 4.125 6 6 C4.68 6.33 3.36 6.66 2 7 C2 5.68 2 4.36 2 3 C1.34 3 0.68 3 0 3 C0 2.01 0 1.02 0 0 Z " fill="#7D7D7D" transform="translate(307,159)"/>
<path d="M0 0 C-3.63 1.98 -7.26 3.96 -11 6 C-10.67 4.35 -10.34 2.7 -10 1 C-3.375 -1.125 -3.375 -1.125 0 0 Z " fill="#6A6A69" transform="translate(254,137)"/>
<path d="M0 0 C0.99 0 1.98 0 3 0 C2.45773019 3.79588866 0.79872437 5.47211993 -2 8 C-1.125 1.125 -1.125 1.125 0 0 Z " fill="#6B6B6A" transform="translate(287,278)"/>
<path d="M0 0 C2.97 0.495 2.97 0.495 6 1 C6.33 3.31 6.66 5.62 7 8 C6.34 8 5.68 8 5 8 C4.67 6.02 4.34 4.04 4 2 C2.68 1.67 1.36 1.34 0 1 C0 0.67 0 0.34 0 0 Z " fill="#6A6A69" transform="translate(348,190)"/>
<path d="M0 0 C0.33 0.66 0.66 1.32 1 2 C1.66 2 2.32 2 3 2 C4.6875 4.3125 4.6875 4.3125 6 7 C5.67 7.99 5.34 8.98 5 10 C4.360625 9.34 3.72125 8.68 3.0625 8 C1.35917681 5.88397569 1.35917681 5.88397569 0 6 C0 4.02 0 2.04 0 0 Z " fill="#747372" transform="translate(259,79)"/>
<path d="M0 0 C-3.1254959 2.64465038 -6.08788267 3.84414715 -10 5 C-8.94958421 2.13522966 -8.29875437 1.16086774 -5.5625 -0.3125 C-3 -1 -3 -1 0 0 Z " fill="#727268" transform="translate(289,439)"/>
<path d="M0 0 C0.103125 0.639375 0.20625 1.27875 0.3125 1.9375 C0.539375 2.618125 0.76625 3.29875 1 4 C1.99 4.33 2.98 4.66 4 5 C2.625 6.5 2.625 6.5 1 8 C0.34 8 -0.32 8 -1 8 C-1.04241723 5.66705225 -1.04092937 3.33297433 -1 1 C-0.67 0.67 -0.34 0.34 0 0 Z " fill="#363535" transform="translate(275,286)"/>
<path d="M0 0 C2.9375 0.375 2.9375 0.375 6 1 C6.33 1.66 6.66 2.32 7 3 C4.36 3.33 1.72 3.66 -1 4 C-0.67 2.68 -0.34 1.36 0 0 Z " fill="#646464" transform="translate(272,138)"/>
<path d="M0 0 C-4.95 2.475 -4.95 2.475 -10 5 C-9.67 4.01 -9.34 3.02 -9 2 C-8.01 2 -7.02 2 -6 2 C-6 1.34 -6 0.68 -6 0 C-4 -1 -4 -1 0 0 Z " fill="#525250" transform="translate(317,422)"/>
<path d="M0 0 C1.8125 0.125 1.8125 0.125 4 1 C5.8125 3.875 5.8125 3.875 7 7 C6.67 7.99 6.34 8.98 6 10 C4.99723227 8.52270825 3.99785546 7.04311423 3 5.5625 C2.443125 4.73878906 1.88625 3.91507812 1.3125 3.06640625 C0 1 0 1 0 0 Z " fill="#838383" transform="translate(237,392)"/>
<path d="M0 0 C-2.97 1.65 -5.94 3.3 -9 5 C-8.67 3.68 -8.34 2.36 -8 1 C-4.70594381 -0.82039948 -3.63772813 -1.21257604 0 0 Z " fill="#60605E" transform="translate(323,345)"/>
<path d="M0 0 C2.33779524 0.95637078 3.71629369 1.53209632 5.046875 3.7265625 C6.0234375 6.36328125 6.0234375 6.36328125 7 9 C4 8 4 8 2.83203125 6.15234375 C2.49558594 5.42144531 2.15914062 4.69054687 1.8125 3.9375 C1.46832031 3.20402344 1.12414062 2.47054687 0.76953125 1.71484375 C0.51558594 1.14894531 0.26164063 0.58304688 0 0 Z " fill="#808080" transform="translate(180,239)"/>
<path d="M0 0 C0.33 1.32 0.66 2.64 1 4 C-1.375 5.5625 -1.375 5.5625 -4 7 C-4.66 6.67 -5.32 6.34 -6 6 C-4 4 -2 2 0 0 Z " fill="#626261" transform="translate(327,229)"/>
<path d="M0 0 C0.33 0 0.66 0 1 0 C1.33 2.97 1.66 5.94 2 9 C1.01 9.33 0.02 9.66 -1 10 C-1.125 2.25 -1.125 2.25 0 0 Z " fill="#818181" transform="translate(241,155)"/>
<path d="M0 0 C2.475 0.495 2.475 0.495 5 1 C4.67 3.31 4.34 5.62 4 8 C3.67 8 3.34 8 3 8 C3 6.02 3 4.04 3 2 C2.01 2 1.02 2 0 2 C0 1.34 0 0.68 0 0 Z " fill="#4B4947" transform="translate(363,65)"/>
<path d="M0 0 C1.65 0 3.3 0 5 0 C3.60878255 2.7824349 1.69835788 3.55210065 -1 5 C-1.66 5 -2.32 5 -3 5 C-3 4.01 -3 3.02 -3 2 C-2.01 2 -1.02 2 0 2 C0 1.34 0 0.68 0 0 Z " fill="#6D6D6B" transform="translate(331,409)"/>
<path d="M0 0 C1.32 0.33 2.64 0.66 4 1 C-1.75 6 -1.75 6 -4 6 C-4 5.34 -4 4.68 -4 4 C-3.34 4 -2.68 4 -2 4 C-2 3.34 -2 2.68 -2 2 C-1.34 2 -0.68 2 0 2 C0 1.34 0 0.68 0 0 Z " fill="#696969" transform="translate(441,341)"/>
<path d="M0 0 C0.66 0.33 1.32 0.66 2 1 C0 4 0 4 -1.875 4.625 C-2.57625 4.74875 -3.2775 4.8725 -4 5 C-5.11375 5.2784375 -5.11375 5.2784375 -6.25 5.5625 C-6.8275 5.706875 -7.405 5.85125 -8 6 C-5.54080489 3.3651481 -3.42227589 1.25483449 0 0 Z " fill="#7A6A6A" transform="translate(391,313)"/>
<path d="M0 0 C-2.64 1.65 -5.28 3.3 -8 5 C-8 4.01 -8 3.02 -8 2 C-3.71900826 -1.23966942 -3.71900826 -1.23966942 0 0 Z " fill="#888888" transform="translate(379,311)"/>
<path d="M0 0 C0.99 0.33 1.98 0.66 3 1 C1.26440562 4.057952 -0.38472619 6.63379989 -3 9 C-2.69181644 7.68647977 -2.37832335 6.37420428 -2.0625 5.0625 C-1.88847656 4.33160156 -1.71445312 3.60070312 -1.53515625 2.84765625 C-1 1 -1 1 0 0 Z " fill="#727271" transform="translate(282,176)"/>
<path d="M0 0 C1.32 1.32 2.64 2.64 4 4 C2.35 4.66 0.7 5.32 -1 6 C-1.33 5.01 -1.66 4.02 -2 3 C-1.34 3 -0.68 3 0 3 C0 2.01 0 1.02 0 0 Z " fill="#4C4C4A" transform="translate(337,123)"/>
<path d="M0 0 C3.25543229 0.34879632 4.01873107 1.02133261 6.25 3.5625 C6.8275 4.366875 7.405 5.17125 8 6 C7.01 6 6.02 6 5 6 C4.34 5.01 3.68 4.02 3 3 C2.01 2.67 1.02 2.34 0 2 C0 1.34 0 0.68 0 0 Z " fill="#777777" transform="translate(247,41)"/>
<path d="M0 0 C0.33 0.66 0.66 1.32 1 2 C1.66 2 2.32 2 3 2 C2.34 3.32 1.68 4.64 1 6 C0.34 6 -0.32 6 -1 6 C-1.33 4.68 -1.66 3.36 -2 2 C-1.34 2 -0.68 2 0 2 C0 1.34 0 0.68 0 0 Z " fill="#484746" transform="translate(337,403)"/>
<path d="M0 0 C1.65 0 3.3 0 5 0 C3.625 1.5 3.625 1.5 2 3 C1.34 3 0.68 3 0 3 C0 3.66 0 4.32 0 5 C-0.99 5.33 -1.98 5.66 -3 6 C-3 5.34 -3 4.68 -3 4 C-2.34 4 -1.68 4 -1 4 C-0.67 2.68 -0.34 1.36 0 0 Z " fill="#878684" transform="translate(419,354)"/>
<path d="M0 0 C0.66 0.33 1.32 0.66 2 1 C-1.28804981 3.91227269 -3.59885603 5.49701212 -8 6 C-7 3 -7 3 -3.5625 1.25 C-2.386875 0.8375 -1.21125 0.425 0 0 Z " fill="#6E6E6E" transform="translate(343,343)"/>
<path d="M0 0 C0.66 0 1.32 0 2 0 C2 2.31 2 4.62 2 7 C1.01 7.33 0.02 7.66 -1 8 C-0.67 5.36 -0.34 2.72 0 0 Z " fill="#545454" transform="translate(299,223)"/>
<path d="M0 0 C2.64 0.66 5.28 1.32 8 2 C8 2.66 8 3.32 8 4 C6.02 4 4.04 4 2 4 C1.34 2.68 0.68 1.36 0 0 Z " fill="#636361" transform="translate(294,101)"/>
</svg>
